<svg id="SvgjsSvg1001" width="288" height="288" xmlns="http://www.w3.org/2000/svg" version="1.1" xmlns:xlink="http://www.w3.org/1999/xlink" xmlns:svgjs="http://svgjs.com/svgjs"><defs id="SvgjsDefs1002"></defs><g id="SvgjsG1008" transform="matrix(1,0,0,1,0,0)"><svg xmlns="http://www.w3.org/2000/svg" width="288" height="288" enable-background="new 0 0 800 100" viewBox="0 0 800 100"><switch><g fill="#000000" class="color000 svgShape"><path fill="#333f48" d="M111.712 49.558l.246-1.719 6.288.148 5.749-.148.244 1.719-4.174.64V70.24c0 6.386-2.604 10.662-12.38 12.921-9.679 0-13.118-5.208-13.118-13.019V50.198l-4.419-.64.244-1.719 6.78.148 6.73-.148.246 1.719-4.175.64v20.681c0 6.093 2.604 9.579 8.204 9.579 5.11 0 7.959-3.438 7.959-9.727V50.198L111.712 49.558zM123.504 61.986v-.834l1.719-1.721h3.194v-3.192l3.193-3.192h1.277v6.729h7.418v2.21h-7.369v14.396c0 1.425.541 2.947 2.604 2.947 1.425 0 2.505-.493 3.881-1.181l.833 1.673-5.746 3.192c-5.503 0-6.24-1.964-6.24-6.388v-14.64H123.504zM148.265 82.179l-5.65.147-.246-1.721 3.439-.489V62.186l-3.439.294-.246-1.721 5.896-1.522 2.457-.197v21.077l3.685.489-.246 1.721L148.265 82.179zM145.808 48.379l3.538-.244 1.375.244.246 2.753-.541 2.356-3.488.294-1.326-.294-.294-2.751L145.808 48.379z" class="color333F48 svgShape"></path><polygon fill="#333f48" points="162.758 82.179 157.108 82.326 156.862 80.605 160.301 80.116 160.301 50.54 156.862 50.639 156.617 48.918 162.512 47.396 164.969 47.201 164.969 80.116 168.653 80.605 168.408 82.326" class="color333F48 svgShape"></polygon><path fill="#333f48" d="M177.004 82.179l-5.65.147-.246-1.721 3.439-.489V62.186l-3.439.294-.245-1.721 5.896-1.522 2.456-.197v21.077l3.685.489-.246 1.721L177.004 82.179zM174.548 48.379l3.537-.244 1.375.244.246 2.753-.541 2.356-3.488.294-1.327-.294-.294-2.751L174.548 48.379zM183.637 61.986v-.834l1.719-1.721h3.194v-3.192l3.194-3.192h1.277v6.729h7.418v2.21h-7.369v14.396c0 1.425.541 2.947 2.604 2.947 1.424 0 2.505-.493 3.88-1.181l.834 1.673-5.747 3.192c-5.502 0-6.238-1.964-6.238-6.388v-14.64H183.637zM208.397 82.179l-5.65.147-.246-1.721 3.439-.489V62.186l-3.439.294-.246-1.721 5.896-1.522 2.456-.197v21.077l3.685.489-.246 1.721L208.397 82.179zM205.941 48.379l3.537-.244 1.375.244.246 2.753-.541 2.356-3.488.294-1.326-.294-.294-2.751L205.941 48.379zM221.073 69.749c0 5.601 2.996 9.58 8.155 9.58 1.965 0 4.323-.935 6.141-2.063l.786 1.865c-2.358 1.621-5.454 3-8.598 3.883-5.945 0-11.3-4.226-11.3-11.937 0-7.272 4.373-11.153 11.104-12.628 6.485 0 8.696 4.078 8.696 9.237v2.062H221.073zM230.948 67.293c0-3.784-.737-6.388-4.52-6.388-2.997 0-4.913 2.803-5.306 6.879L230.948 67.293zM252.612 61.938c-.491-.297-1.965-1.081-3.733-1.081-1.917 0-3.734 1.03-3.734 2.898 0 1.57 1.228 2.556 3.439 3.685l3.783 1.916c3.291 1.669 4.618 3.537 4.618 6.336 0 4.424-3.586 6.093-9.236 7.321-2.996 0-6.19-1.475-7.467-2.21l-.934-5.553h3.144l1.67 4.078c1.032.688 2.457 1.228 4.028 1.228 2.604 0 3.931-1.669 3.931-3.733 0-1.916-1.032-2.751-3.586-4.077l-3.881-2.015c-2.111-1.081-4.125-2.949-4.125-5.7 0-3.438 3.191-5.354 8.89-6.582 2.653 0 5.503 1.181 6.927 2.214v4.909h-2.604L252.612 61.938zM281.745 58.449c6.19 0 7.763 1.573 7.763 7.811v9.631c0 2.111.344 2.897.834 3.685h2.457l.197 1.718-6.338 1.228-1.522-3.781-5.847 4.274c-4.225 0-7.221-2.357-7.221-6.288 0-1.769.638-3.047 1.719-4.52l11.054-3.685v-2.457c0-2.948-.246-4.716-2.898-4.716-1.327 0-2.948.443-4.029.885l-.834 3.88h-4.226V62.38L281.745 58.449zM284.84 70.485l-7.124 2.949c-.736.735-.982 1.721-.982 2.75 0 2.505 1.425 3.391 2.85 3.391 1.375 0 2.555-.836 3.194-1.276l2.063-1.427V70.485zM300.857 82.179l-5.65.147-.246-1.721 3.439-.489V62.184l-3.439.296-.245-1.721 5.896-1.522 2.112-.147.246 4.126 7.27-4.766c6.288 0 7.322 2.114 7.322 8.009v13.658l3.732.489-.244 1.721-5.652-.147-4.714.147-.246-1.721 2.457-.489V66.064c0-2.556-1.13-3.685-3.243-3.685-1.72 0-3.439 1.081-5.109 2.21l-1.474.982v14.544l2.702.489-.246 1.721L300.857 82.179zM343.747 75.891c0 1.964.342 2.85.836 3.585h2.749l.198 1.817-6.583 1.228-1.523-3.78-6.337 4.273c-6.239 0-10.219-4.667-10.219-11.447 0-7.958 4.864-12.135 12.037-13.117.982 0 3.045.787 4.175 1.327v-9.284l-3.439.099-.246-1.67 5.896-1.525 2.457-.195V75.891zM337.605 77.069l1.474-1.179v-13.02c-1.08-1.229-2.8-1.966-4.863-1.966-3.931 0-6.436 3.586-6.436 9.385 0 5.453 2.162 8.793 5.11 8.793C334.216 79.083 335.886 78.444 337.605 77.069" class="color333F48 svgShape"></path><polygon fill="#333f48" points="388.305 47.838 388.795 56.681 387.125 56.681 384.375 50.295 371.355 50.147 371.355 63.215 378.235 63.02 380.198 57.86 381.918 57.86 381.426 64.002 381.918 70.632 380.198 70.632 378.235 65.477 371.355 65.278 371.355 80.017 384.866 79.869 388.157 73.237 390.024 73.237 388.305 82.326 368.802 82.179 362.022 82.326 361.776 80.605 366.197 79.967 366.197 50.196 361.776 49.558 362.022 47.838 368.802 47.987" class="color333F48 svgShape"></polygon><path fill="#333f48" d="M398.131 82.179l-5.65.147-.246-1.721 3.439-.489V62.184l-3.439.296-.245-1.721 5.896-1.522 2.112-.147.246 4.126 7.268-4.766c6.289 0 7.324 2.114 7.324 8.009v13.658l3.73.489-.244 1.721-5.65-.147-4.715.147-.246-1.721 2.457-.489V66.064c0-2.556-1.131-3.685-3.242-3.685-1.719 0-3.439 1.081-5.109 2.21l-1.474.982v14.544l2.703.489-.248 1.721L398.131 82.179zM424.955 69.749c0 5.601 2.996 9.58 8.156 9.58 1.965 0 4.322-.935 6.141-2.063l.785 1.865c-2.357 1.621-5.453 3-8.598 3.883-5.943 0-11.299-4.226-11.299-11.937 0-7.272 4.373-11.153 11.104-12.628 6.484 0 8.695 4.078 8.695 9.237v2.062H424.955zM434.83 67.293c0-3.784-.736-6.388-4.52-6.388-2.996 0-4.912 2.803-5.307 6.879L434.83 67.293zM450.451 65.572l5.602-6.877h3.93v4.913h-3.635c-1.178.246-3.34 1.864-4.668 3.489l-.982 1.178v11.691l5.16.491-.246 1.868-7.123-.147-5.504.147-.244-1.721 3.438-.489V62.186l-3.438.294-.246-1.721 5.895-1.522 1.965-.147L450.451 65.572zM480.225 61.446l2.65-2.997h2.951v3.979h-2.951l-1.619.787c.295.735.49 1.522.49 2.357 0 4.177-2.898 7.123-9.58 8.844-.688 0-1.326 0-1.916-.1l-2.65 3.047c0 1.031.734 1.72 1.916 1.72h8.986c4.473 0 6.439 2.062 6.439 5.06 0 4.03-5.109 7.959-12.529 10.171-7.123 0-10.709-2.212-10.709-6.78v-.835l5.355-4.126c-3.439-1.279-3.686-2.85-3.686-5.111v-.294l4.914-3.391c-3.098-1.081-5.109-3.438-5.109-6.483 0-4.177 2.848-7.123 9.58-8.844C475.949 58.449 478.652 59.581 480.225 61.446M468.826 83.014c-2.506 2.751-2.701 3.635-2.701 4.322 0 2.31 2.652 4.077 6.682 4.077 4.027 0 7.467-2.604 7.467-5.896 0-1.769-1.328-2.504-4.668-2.504H468.826zM472.02 60.711c-2.652 0-4.174 2.062-4.174 5.207 0 2.357 1.029 6.188 5.059 6.188 2.652 0 4.174-1.816 4.174-4.666C477.078 64.885 476.047 60.711 472.02 60.711" class="color333F48 svgShape"></path><polygon fill="#333f48" points="490.248 93.821 490.248 88.908 494.473 88.908 499.334 81.491 497.371 82.079 489.361 61.349 486.316 60.857 486.562 59.137 492.211 59.284 497.371 59.137 497.617 60.857 494.373 61.349 499.58 75.743 499.975 79.131 505.82 61.349 503.559 60.857 503.805 59.137 508.127 59.284 512.207 59.137 512.453 60.857 509.309 61.349 501.596 81.439 496.092 93.821" class="color333F48 svgShape"></polygon><polygon fill="#333f48" points="558.926 47.838 564.379 47.987 568.949 47.838 569.193 49.558 565.018 50.196 565.018 79.967 568.949 80.605 568.703 82.326 562.809 82.179 555.686 82.326 555.439 80.605 559.859 79.967 559.859 57.517 560.498 51.768 548.068 82.274 545.023 82.274 535.146 57.468 533.332 51.768 533.332 79.967 537.654 80.605 537.262 82.326 532.006 82.179 526.453 82.326 526.207 80.605 530.137 79.967 530.137 50.295 525.963 49.558 526.207 47.838 531.268 47.987 536.672 47.838 546.988 73.827 547.381 76.578" class="color333F48 svgShape"></polygon><path fill="#333f48" d="M581.084 58.449c6.191 0 7.762 1.573 7.762 7.811v9.631c0 2.111.344 2.897.836 3.685h2.457l.193 1.718-6.336 1.228-1.521-3.781-5.848 4.274c-4.225 0-7.221-2.357-7.221-6.288 0-1.769.639-3.047 1.721-4.52l11.051-3.685v-2.457c0-2.948-.244-4.716-2.898-4.716-1.324 0-2.945.443-4.027.885l-.834 3.88h-4.227V62.38L581.084 58.449zM584.178 70.485l-7.123 2.949c-.736.735-.98 1.721-.98 2.75 0 2.505 1.424 3.391 2.85 3.391 1.375 0 2.553-.836 3.191-1.276l2.062-1.427V70.485zM600.195 82.179l-5.648.147-.246-1.721 3.438-.489V62.184l-3.438.296-.246-1.721 5.895-1.522 2.113-.147.244 4.126 7.271-4.766c6.289 0 7.32 2.114 7.32 8.009v13.658l3.73.489-.242 1.721-5.65-.147-4.717.147-.244-1.721 2.455-.489V66.064c0-2.556-1.129-3.685-3.242-3.685-1.719 0-3.436 1.081-5.109 2.21l-1.473.982v14.544l2.701.489-.244 1.721L600.195 82.179zM632.619 58.449c6.191 0 7.764 1.573 7.764 7.811v9.631c0 2.111.344 2.897.834 3.685h2.457l.195 1.718-6.338 1.228-1.521-3.781-5.848 4.274c-4.225 0-7.221-2.357-7.221-6.288 0-1.769.639-3.047 1.721-4.52l11.051-3.685v-2.457c0-2.948-.244-4.716-2.896-4.716-1.326 0-2.947.443-4.027.885l-.836 3.88h-4.225V62.38L632.619 58.449zM635.713 70.485l-7.121 2.949c-.738.735-.982 1.721-.982 2.75 0 2.505 1.424 3.391 2.85 3.391 1.375 0 2.555-.836 3.191-1.276l2.062-1.427V70.485zM663.619 61.446l2.652-2.997h2.947v3.979h-2.947l-1.621.787c.295.735.492 1.522.492 2.357 0 4.177-2.898 7.123-9.58 8.844-.688 0-1.326 0-1.916-.1l-2.652 3.047c0 1.031.736 1.72 1.916 1.72h8.99c4.471 0 6.436 2.062 6.436 5.06 0 4.03-5.109 7.959-12.527 10.171-7.123 0-10.711-2.212-10.711-6.78v-.835l5.355-4.126c-3.439-1.279-3.684-2.85-3.684-5.111v-.294l4.912-3.391c-3.096-1.081-5.109-3.438-5.109-6.483 0-4.177 2.85-7.123 9.58-8.844C659.346 58.449 662.047 59.581 663.619 61.446M652.223 83.014c-2.506 2.751-2.703 3.635-2.703 4.322 0 2.31 2.654 4.077 6.68 4.077 4.031 0 7.469-2.604 7.469-5.896 0-1.769-1.326-2.504-4.666-2.504H652.223zM655.414 60.711c-2.652 0-4.176 2.062-4.176 5.207 0 2.357 1.033 6.188 5.061 6.188 2.654 0 4.176-1.816 4.176-4.666C660.475 64.885 659.443 60.711 655.414 60.711M675.264 69.749c0 5.601 2.994 9.58 8.154 9.58 1.965 0 4.322-.935 6.141-2.063l.785 1.865c-2.357 1.621-5.453 3-8.598 3.883-5.943 0-11.299-4.226-11.299-11.937 0-7.272 4.373-11.153 11.104-12.628 6.484 0 8.695 4.078 8.695 9.237v2.062H675.264zM685.137 67.293c0-3.784-.738-6.388-4.52-6.388-2.996 0-4.912 2.803-5.307 6.879L685.137 67.293zM726.943 82.179l-4.666.147-.246-1.721 2.457-.489V66.064c0-2.556-1.082-3.685-2.852-3.685-1.473 0-3.291.982-5.01 2.21l-1.473 1.033v14.493l2.211.489-.246 1.721-4.176-.147-4.422.147-.246-1.721 2.211-.489V66.064c0-2.556-1.08-3.685-2.848-3.685-1.475 0-3.293.982-5.014 2.21l-1.473 1.033v14.493l2.457.489-.246 1.721-4.422-.147-5.648.147-.246-1.721 3.438-.489V62.184l-3.438.296-.244-1.721 5.895-1.522 2.111-.147.244 4.078 6.781-4.718c4.766 0 6.533 1.425 7.074 4.815l6.926-4.815c6.289 0 7.32 2.359 7.32 8.598v13.069l3.684.489-.244 1.721L726.943 82.179zM739.229 69.749c0 5.601 2.996 9.58 8.154 9.58 1.967 0 4.324-.935 6.143-2.063l.785 1.865c-2.357 1.621-5.453 3-8.598 3.883-5.943 0-11.299-4.226-11.299-11.937 0-7.272 4.373-11.153 11.104-12.628 6.482 0 8.695 4.078 8.695 9.237v2.062H739.229zM749.104 67.293c0-3.784-.738-6.388-4.52-6.388-2.998 0-4.914 2.803-5.307 6.879L749.104 67.293zM762.908 82.179l-5.648.147-.246-1.721 3.438-.489V62.184l-3.438.296-.246-1.721 5.895-1.522 2.113-.147.244 4.126 7.271-4.766c6.289 0 7.32 2.114 7.32 8.009v13.658l3.73.489-.242 1.721-5.65-.147-4.717.147-.244-1.721 2.455-.489V66.064c0-2.556-1.129-3.685-3.242-3.685-1.719 0-3.436 1.081-5.109 2.21l-1.473.982v14.544l2.701.489-.244 1.721L762.908 82.179zM783.201 61.986v-.834l1.719-1.721h3.191v-3.192l3.193-3.192h1.277v6.729H800v2.21h-7.367v14.396c0 1.425.539 2.947 2.604 2.947 1.424 0 2.504-.493 3.879-1.181l.836 1.673-5.746 3.192c-5.504 0-6.24-1.964-6.24-6.388v-14.64H783.201z" class="color333F48 svgShape"></path><rect width=".076" height=".026" x="34.27" y="35.218" fill="#ffffff" class="colorBF5700 svgShape"></rect><path fill="#ffffff" d="M43.193,27.806c-1.864-0.285-3.628-0.557-5.223-0.557c-0.855,0-1.601,0.082-2.27,0.244l-0.372-10.412
				v-1.728c0.735-0.308,1.628-0.452,2.759-0.452c1.456,0,3.118,0.244,4.88,0.503c1.549,0.228,3.142,0.452,4.777,0.557l0.444,12.447
				C46.514,28.315,44.831,28.062,43.193,27.806 M25.423,27.806c-1.639,0.256-3.325,0.509-5,0.603l0.447-12.447
				c1.635-0.105,3.227-0.329,4.775-0.557c1.762-0.259,3.426-0.503,4.882-0.503c1.132,0,2.024,0.144,2.758,0.452v1.728l-0.372,10.412
				c-0.668-0.162-1.413-0.244-2.271-0.244C29.049,27.249,27.287,27.521,25.423,27.806 M51.874,20.461v-2.366h-1.459v-4.042h-0.987
				c-2.088,0-4.163-0.306-6.174-0.599c-1.832-0.269-3.565-0.526-5.165-0.526c-1.505,0-2.748,0.237-3.781,0.724
				c-1.032-0.486-2.276-0.724-3.78-0.724c-1.6,0-3.332,0.257-5.167,0.526c-2.009,0.292-4.087,0.599-6.175,0.599h-0.984v4.042H16.74
				v2.366h1.461v3.205h-1.442v2.366h1.442v4.389h0.984c2.231,0,4.419-0.339,6.538-0.665c1.788-0.276,3.476-0.537,4.919-0.537
				c1.164,0,2.037,0.168,2.713,0.521v0.001h1.903V29.74c0.676-0.352,1.55-0.521,2.711-0.521c1.446,0,3.134,0.261,4.923,0.537
				c2.116,0.326,4.307,0.665,6.534,0.665h0.987v-4.389h1.443v-2.366h-1.443v-3.205H51.874z" class="colorBF5700 svgShape"></path><path fill="#ffffff" d="M25.691 17.192c-.098.015-.193.03-.292.042-.927.136-1.868.273-2.819.384l-.056 1.595c1.053-.114 2.086-.267 3.105-.417.021-.003.041-.005.062-.01V17.192zM26.875 17.024v1.593c1.679-.234 3.218-.401 4.555-.292l.054-1.572C30.06 16.647 28.5 16.803 26.875 17.024M25.691 24.413c-.098.015-.193.03-.292.042-1.012.149-2.04.3-3.08.413l-.058 1.594c1.144-.119 2.265-.283 3.367-.445.021-.002.041-.005.062-.008V24.413zM26.875 24.245v1.594c1.57-.218 3.023-.38 4.296-.31l.054-1.57C29.872 23.888 28.403 24.037 26.875 24.245M25.446 20.838v1.597c.061-.01.122-.02.182-.029 2.109-.306 4.039-.591 5.67-.483l.055-1.567C29.548 20.244 27.533 20.532 25.446 20.838M24.263 21.008c-.6.087-1.204.167-1.813.238l-.059 1.592c.632-.067 1.256-.151 1.872-.234V21.008zM41.021 16.932c-1.366-.169-2.681-.269-3.891-.177l.056 1.572c1.141-.093 2.435.015 3.835.195V16.932zM46.035 17.618c-.952-.108-1.893-.246-2.822-.381-.339-.051-.676-.1-1.008-.146v1.592c.255.038.519.074.781.115 1.019.151 2.053.301 3.106.418L46.035 17.618zM40.695 20.502c-1.199-.136-2.356-.214-3.436-.147l.056 1.567c1.021-.067 2.155.016 3.38.167V20.502zM46.165 21.245c-.994-.111-1.981-.255-2.951-.4-.449-.064-.895-.129-1.335-.191v1.591c.362.053.732.106 1.108.161 1.059.157 2.139.312 3.236.433L46.165 21.245zM43.062 26.028c1.076.159 2.173.316 3.29.434l-.055-1.593c-1.042-.113-2.07-.264-3.083-.413-.05-.008-.102-.015-.152-.023V26.028zM41.878 24.264c-1.577-.218-3.095-.377-4.49-.307l.058 1.572c1.312-.072 2.808.098 4.433.33V24.264zM32.254 49.729l2.054-5.132 2.053 5.132 5.519.369-4.25 3.541 1.356 5.36-4.679-2.948-4.681 2.948 1.359-5.36-4.249-3.541L32.254 49.729zM19.751 47.909v.001l8.917 6.483-3.434 10.564c.003.02.011.042.027.052.017.014.036.014.054.014l8.993-6.537 8.987 6.532c.02.005.04 0 .055-.009.029-.022.036-.062.019-.095L39.95 54.391l8.914-6.479v-.005c.042-.015.067-.056.056-.097-.014-.04-.06-.061-.104-.047V47.76H37.795l-3.406-10.484h-.005c0-.044-.034-.082-.075-.082-.043 0-.076.038-.076.082h-.005L30.825 47.76H19.799l-.003.006c-.041-.015-.084.007-.098.046C19.685 47.851 19.708 47.895 19.751 47.909" class="colorBF5700 svgShape"></path><path fill="#ffffff" d="M56.441,61.158c-0.803,0.89-1.847,1.504-3,1.783c0.164-1.179,0.672-2.282,1.474-3.168
				c0.812-0.893,1.856-1.512,3.003-1.785C57.756,59.166,57.248,60.272,56.441,61.158 M52.126,54.224
				c-0.152-1.192,0.054-2.389,0.59-3.45c0.789,0.888,1.295,1.989,1.451,3.181c0.159,1.187-0.049,2.383-0.584,3.441
				C52.792,56.511,52.283,55.411,52.126,54.224 M54.515,45.198c-0.223-1.183-0.086-2.389,0.382-3.479
				c0.838,0.838,1.411,1.909,1.637,3.089c0.229,1.178,0.095,2.383-0.378,3.477C55.316,47.442,54.743,46.374,54.515,45.198
				 M60.212,47.833c0.084,1.188-0.188,2.371-0.794,3.408c-0.601,1.036-1.494,1.854-2.566,2.366c-0.083-1.189,0.187-2.373,0.79-3.409
				C58.251,49.158,59.143,48.342,60.212,47.833 M51.477,70.248c-0.969,0.704-2.107,1.088-3.302,1.126
				c0.402-1.126,1.128-2.098,2.099-2.799c0.973-0.706,2.114-1.09,3.308-1.122C53.176,68.572,52.45,69.545,51.477,70.248
				 M48.689,62.572c0.099-1.201,0.547-2.325,1.288-3.253c0.589,1.028,0.857,2.212,0.766,3.409c-0.094,1.196-0.542,2.327-1.288,3.253
				C48.867,64.948,48.595,63.769,48.689,62.572 M45.575,70.609c-0.335,1.148-1.008,2.159-1.927,2.914
				c-0.365-1.129-0.384-2.341-0.047-3.492c0.342-1.155,1.016-2.166,1.934-2.916C45.898,68.24,45.915,69.455,45.575,70.609
				 M47.38,75.813c-0.627,1.015-1.539,1.817-2.636,2.303c-0.761,0.341-1.57,0.513-2.4,0.513c-0.359,0-0.714-0.029-1.062-0.093
				c0.626-1.015,1.538-1.814,2.633-2.304C45.009,75.743,46.216,75.603,47.38,75.813 M37.081,76.28
				c0.575-1.062,1.443-1.912,2.495-2.456c0.121,1.177-0.109,2.367-0.681,3.429c-0.564,1.054-1.431,1.906-2.488,2.457
				C36.285,78.526,36.515,77.333,37.081,76.28 M23.756,78.116c-1.096-0.485-2.008-1.288-2.635-2.303
				c1.164-0.211,2.369-0.07,3.468,0.419c1.094,0.489,2.006,1.289,2.631,2.304C26.055,78.75,24.848,78.606,23.756,78.116
				 M22.924,70.606c-0.338-1.151-0.319-2.366,0.044-3.491c0.914,0.75,1.588,1.758,1.931,2.912c0.337,1.155,0.32,2.367-0.046,3.496
				C23.935,72.769,23.259,71.758,22.924,70.606 M28.924,73.824c1.053,0.544,1.92,1.395,2.493,2.45c0.57,1.059,0.8,2.252,0.678,3.436
				c-1.057-0.551-1.922-1.403-2.489-2.457C29.034,76.191,28.803,75.001,28.924,73.824 M17.024,70.248
				c-0.973-0.703-1.698-1.676-2.103-2.795c1.192,0.032,2.332,0.416,3.305,1.122c0.972,0.701,1.698,1.673,2.101,2.799
				C19.131,71.336,17.993,70.952,17.024,70.248 M18.523,59.319c0.742,0.928,1.189,2.052,1.289,3.253
				c0.093,1.196-0.18,2.376-0.768,3.409c-0.746-0.926-1.192-2.057-1.286-3.256C17.666,61.531,17.934,60.348,18.523,59.319
				 M12.059,61.158c-0.803-0.886-1.313-1.992-1.477-3.17c1.149,0.273,2.194,0.893,3.002,1.785c0.804,0.886,1.314,1.989,1.479,3.168
				C13.906,62.662,12.863,62.048,12.059,61.158 M11.649,53.606c-1.07-0.512-1.967-1.33-2.567-2.366
				c-0.604-1.037-0.876-2.22-0.792-3.408c1.067,0.51,1.963,1.325,2.571,2.365C11.46,51.233,11.732,52.417,11.649,53.606
				 M11.965,44.805c0.228-1.181,0.801-2.249,1.639-3.086c0.47,1.09,0.604,2.297,0.38,3.476c-0.226,1.18-0.799,2.249-1.641,3.091
				C11.87,47.19,11.736,45.985,11.965,44.805 M14.333,53.952c0.157-1.189,0.663-2.29,1.452-3.178
				c0.534,1.061,0.742,2.257,0.587,3.447c-0.155,1.19-0.663,2.29-1.452,3.176C14.382,56.338,14.176,55.142,14.333,53.952
				 M56.444,55.447c1.839-0.553,3.382-1.764,4.34-3.414c0.959-1.647,1.258-3.588,0.835-5.461l-0.186-0.824l-0.809,0.242
				c-0.932,0.277-1.789,0.726-2.531,1.315c0.172-0.916,0.17-1.863-0.009-2.796c-0.362-1.88-1.413-3.537-2.964-4.665l-0.683-0.5
				l-0.449,0.717c-1.017,1.618-1.38,3.55-1.023,5.432c0.36,1.867,1.405,3.513,2.941,4.646c-0.285,0.642-0.478,1.318-0.573,2.009
				c-0.455-1.247-1.233-2.367-2.279-3.23l-0.654-0.541l-0.491,0.688c-1.11,1.553-1.59,3.459-1.347,5.36
				c0.25,1.89,1.2,3.612,2.68,4.836l0.035,0.024c-0.434,0.59-0.776,1.235-1.023,1.92c-0.185-1.317-0.716-2.571-1.564-3.635
				l-0.523-0.664l-0.624,0.574c-1.41,1.291-2.271,3.053-2.423,4.966c-0.151,1.903,0.427,3.777,1.621,5.28l0.031,0.039
				c-0.548,0.482-1.017,1.046-1.398,1.663c0.09-1.331-0.169-2.668-0.778-3.883l-0.378-0.755l-0.727,0.435
				c-1.647,0.973-2.856,2.521-3.4,4.356c-0.537,1.836-0.36,3.787,0.497,5.505l0.022,0.041c-0.637,0.362-1.21,0.812-1.711,1.341
				c0.362-1.283,0.384-2.646,0.038-3.957l-0.214-0.818l-0.799,0.269c-1.812,0.614-3.312,1.881-4.227,3.566
				c-0.875,1.626-1.114,3.509-0.686,5.305c-0.241,0.168-0.495,0.339-0.759,0.517c-0.262-0.178-0.516-0.349-0.758-0.517
				c0.428-1.796,0.191-3.679-0.687-5.308c-0.912-1.683-2.412-2.949-4.227-3.563l-0.799-0.269l-0.214,0.818
				c-0.346,1.312-0.323,2.674,0.039,3.957c-0.501-0.528-1.075-0.979-1.709-1.341l0.019-0.041c0.86-1.718,1.035-3.669,0.499-5.505
				c-0.545-1.836-1.753-3.384-3.4-4.356l-0.725-0.435l-0.38,0.755c-0.611,1.215-0.867,2.552-0.776,3.883
				c-0.384-0.62-0.852-1.181-1.398-1.663l0.03-0.039c1.195-1.503,1.771-3.377,1.621-5.283c-0.153-1.91-1.013-3.672-2.425-4.963
				l-0.622-0.574l-0.525,0.664c-0.847,1.063-1.378,2.317-1.564,3.635c-0.244-0.685-0.586-1.33-1.022-1.92l0.036-0.024
				c1.479-1.224,2.43-2.946,2.677-4.836c0.247-1.9-0.232-3.807-1.346-5.36l-0.493-0.688l-0.65,0.541
				c-1.049,0.863-1.826,1.983-2.281,3.233c-0.094-0.693-0.287-1.37-0.573-2.012c1.536-1.133,2.581-2.779,2.941-4.647
				c0.355-1.883-0.006-3.812-1.023-5.43l-0.45-0.717l-0.683,0.5c-1.549,1.128-2.603,2.785-2.962,4.662
				c-0.18,0.936-0.184,1.881-0.01,2.799c-0.742-0.589-1.6-1.038-2.529-1.315l-0.809-0.242l-0.187,0.824
				c-0.421,1.874-0.125,3.814,0.834,5.461c0.959,1.65,2.5,2.861,4.341,3.414l0.713,0.213c0.073,0.6,0.224,1.189,0.44,1.759
				c-1.019-0.652-2.183-1.049-3.411-1.147l-0.842-0.069l-0.013,0.846c-0.025,1.92,0.665,3.756,1.946,5.168
				c1.278,1.417,3.038,2.282,4.95,2.443l0.742,0.062c0.194,0.575,0.463,1.119,0.794,1.625c-0.833-0.311-1.711-0.474-2.617-0.474
				c-0.319,0-0.642,0.021-0.958,0.058l-0.838,0.108l0.163,0.825c0.372,1.888,1.426,3.541,2.971,4.663
				c1.284,0.935,2.811,1.427,4.407,1.427c0.313,0,0.63-0.019,0.94-0.058l0.739-0.096c0.314,0.521,0.686,0.998,1.116,1.43
				c-1.199-0.179-2.429-0.073-3.586,0.329l-0.799,0.278l0.333,0.777c0.752,1.766,2.127,3.167,3.866,3.944
				c0.968,0.428,1.991,0.647,3.046,0.647c0.842,0,1.672-0.141,2.473-0.418l0.588-0.204c0.982,0.836,2.091,1.668,3.617,2.712
				c-0.697,0.459-1.464,0.96-2.325,1.51l1.482,0.923c0.838-0.54,1.581-1.026,2.256-1.476c0.676,0.449,1.42,0.936,2.257,1.476
				l1.483-0.923c-0.86-0.55-1.63-1.051-2.324-1.51c1.523-1.044,2.633-1.876,3.616-2.712l0.591,0.204
				c0.8,0.277,1.628,0.418,2.47,0.418c1.055,0,2.078-0.22,3.044-0.645c1.744-0.78,3.115-2.182,3.866-3.947l0.334-0.777l-0.8-0.278
				c-1.158-0.402-2.388-0.508-3.583-0.326c0.429-0.432,0.802-0.911,1.113-1.433l0.74,0.096c0.311,0.039,0.625,0.058,0.94,0.058H48
				c1.592,0,3.119-0.492,4.404-1.427c1.544-1.122,2.599-2.775,2.971-4.663l0.162-0.825l-0.836-0.108
				c-0.317-0.037-0.641-0.058-0.958-0.058c-0.904,0-1.786,0.163-2.617,0.474c0.33-0.506,0.598-1.05,0.795-1.625l0.741-0.062
				c1.913-0.161,3.672-1.026,4.949-2.443c1.281-1.412,1.972-3.248,1.945-5.168l-0.011-0.846l-0.842,0.069
				c-1.227,0.099-2.393,0.495-3.411,1.147c0.218-0.569,0.367-1.159,0.44-1.759L56.444,55.447z" class="colorBF5700 svgShape"></path><path fill="#ffffff" d="M56.647 72.119c-1.607 2.352-3.445 4.532-5.663 6.656-6.842 6.282-14.521 9.752-16.684 10.654-2.166-.902-9.844-4.372-16.687-10.654-2.215-2.124-4.054-4.305-5.663-6.656C4.183 60.744 3.165 47.552 3.158 37.302L3.166 37.3l31.143-1.729 31.134 1.727C65.435 47.55 64.416 60.744 56.647 72.119M4.818 10.83c5.789-.64 18.806-1.937 29.491-1.937 10.682 0 23.696 1.297 29.487 1.937l1.622 22.812H34.309 3.197L4.818 10.83zM68.602 8.193l-1.383-.175c-.183-.021-18.577-2.311-32.902-2.312h-.008-.012C19.973 5.707 1.581 7.997 1.396 8.018L.014 8.193v25.449H0v3.552c0 10.72 1.063 24.579 9.346 36.708 1.708 2.498 3.648 4.804 5.972 7.046l-.001.003c.017.013.03.022.045.037 4.494 4.326 10.434 8.404 18.93 13.138v.013c.003-.006.005-.006.009-.006.003 0 .005 0 .008.006v-.013c8.495-4.733 14.434-8.812 18.928-13.138.016-.015.03-.024.046-.037v-.003c2.322-2.242 4.263-4.548 5.971-7.046 8.285-12.129 9.346-25.988 9.346-36.708v-.506l.003-.001V8.193zM117.812 33.667l-3.079.1-.164-1.15 1.603-.326v-9.371c0-1.703-.785-2.457-2.097-2.457-.982 0-2.26.722-3.471 1.474l-.982.624v9.729l1.801.326-.164 1.15-3.111-.1-3.44.1-.164-1.15 1.965-.326V12.243l-1.179.196-6.65-.098v19.853l3.769.424-.164 1.15-5.308-.1-5.502.1-.166-1.15 3.932-.424V12.341l-4.915.098-1.506 4.094h-1.277v-5.797l9.401.066 8.059-.066 3.506-.393h1.114v10.613l4.781-3.111c4.194 0 4.882 1.574 4.882 5.733v8.714l2.457.326-.164 1.15L117.812 33.667zM126.321 25.38c0 3.731 1.998 6.386 5.438 6.386 1.311 0 2.883-.622 4.094-1.374l.524 1.243c-1.572 1.081-3.636 2-5.731 2.587-3.965 0-7.535-2.816-7.535-7.96 0-4.848 2.915-7.437 7.404-8.419 4.324 0 5.797 2.72 5.797 6.16v1.377H126.321zM132.906 23.743c0-2.523-.491-4.261-3.015-4.261-1.998 0-3.275 1.869-3.538 4.587L132.906 23.743zM158.944 11.915l.164-1.145 4.194.097 3.832-.097.164 1.145-2.786.425v13.367c0 4.259-1.736 7.111-8.255 8.617-6.452 0-8.745-3.473-8.745-8.681V12.34l-2.95-.425.164-1.145 4.521.097 4.487-.097.164 1.145-2.784.425v13.793c0 4.061 1.736 6.388 5.472 6.388 3.406 0 5.305-2.292 5.305-6.487V12.34L158.944 11.915zM171.716 33.667l-3.766.1-.164-1.15 2.292-.326V20.334l-2.292.198-.164-1.148 3.93-1.015 1.408-.098.164 2.75 4.849-3.177c4.192 0 4.881 1.409 4.881 5.34v9.107l2.489.326-.163 1.15-3.769-.1-3.144.1-.164-1.15 1.638-.326v-9.371c0-1.703-.753-2.457-2.161-2.457-1.147 0-2.293.722-3.407 1.474l-.984.655v9.698l1.803.326-.166 1.15L171.716 33.667zM190.483 33.668l-3.766.097-.164-1.147 2.292-.326V20.334l-2.292.197-.164-1.146 3.93-1.016 1.638-.131v14.054l2.457.326-.162 1.147L190.483 33.668zM188.845 11.129l2.358-.166.918.166.163 1.834-.361 1.572-2.325.197-.884-.197-.197-1.834L188.845 11.129z" class="colorBF5700 svgShape"></path><polygon fill="#ffffff" points="203.618 31.636 207.581 19.776 206.076 19.451 206.239 18.303 209.121 18.401 211.84 18.303 212.004 19.451 209.907 19.776 204.535 33.241 202.144 34.224 196.443 19.776 194.412 19.451 194.576 18.303 198.342 18.401 201.783 18.303 201.947 19.451 199.786 19.776 203.355 29.375" class="colorBF5700 svgShape"></polygon><path fill="#ffffff" d="M215.211 25.38c0 3.731 1.998 6.386 5.438 6.386 1.311 0 2.883-.622 4.094-1.374l.524 1.243c-1.572 1.081-3.636 2-5.732 2.587-3.964 0-7.535-2.816-7.535-7.96 0-4.848 2.915-7.437 7.404-8.419 4.323 0 5.797 2.72 5.797 6.16v1.377H215.211zM221.796 23.743c0-2.523-.491-4.261-3.015-4.261-1.998 0-3.275 1.869-3.537 4.587L221.796 23.743zM232.537 22.594l3.733-4.586h2.622v3.277h-2.425c-.786.165-2.227 1.246-3.111 2.327l-.655.786v7.795l3.441.328-.164 1.246-4.75-.097-3.668.097-.166-1.147 2.295-.326V20.334l-2.295.197-.164-1.146 3.933-1.016 1.31-.1L232.537 22.594zM249.208 20.17c-.328-.195-1.31-.719-2.489-.719-1.278 0-2.491.686-2.491 1.93 0 1.05.819 1.705 2.292 2.457l2.523 1.279c2.195 1.114 3.08 2.358 3.08 4.227 0 2.948-2.392 4.062-6.158 4.88-2 0-4.128-.983-4.98-1.474l-.622-3.702h2.096l1.114 2.719c.688.457 1.638.819 2.686.819 1.737 0 2.621-1.114 2.621-2.489 0-1.279-.688-1.836-2.393-2.72l-2.587-1.343c-1.408-.72-2.751-1.965-2.751-3.8 0-2.294 2.129-3.571 5.93-4.39 1.769 0 3.668.788 4.618 1.474v3.275h-1.736L249.208 20.17zM258.248 33.668l-3.766.097-.164-1.147 2.292-.326V20.334l-2.292.197-.164-1.146 3.93-1.016 1.638-.131v14.054l2.457.326-.163 1.147L258.248 33.668zM256.61 11.129l2.358-.166.919.166.162 1.834-.36 1.572-2.326.197-.884-.197-.197-1.834L256.61 11.129zM274.493 41.432v-3.277h2.819l3.242-4.945-1.311.393L273.74 19.81h-4.946v9.991c0 .952.36 1.967 1.736 1.967.95 0 1.965-.461 2.882-.919l.558 1.115-4.127 2.26c-3.67 0-4.161-1.311-4.161-4.258v-9.763h-3.177v-.559l1.146-1.144h2.129v-2.131l2.129-2.128h.852v4.097h10.32l.164 1.112-2.161.326 3.635 9.6.263 2.261 4.061-11.861-1.506-.326.166-1.146 2.882.098 2.719-.098.164 1.146-2.096.326-5.307 13.4-3.669 8.255H274.493zM311.045 25.706c0 4.882-2.98 7.699-8.059 8.518-4.358 0-7.305-3.374-7.305-7.829 0-4.913 2.98-7.699 8.059-8.549C308.098 17.845 311.045 21.252 311.045 25.706M303.806 32.618c2.622 0 3.963-2.686 3.963-6.224 0-4.16-1.998-6.944-4.847-6.944-2.653 0-3.963 2.688-3.963 6.255C298.958 29.443 300.891 32.618 303.806 32.618M318.413 18.664h4.095v1.539h-4.095v12.089l3.768.229-.163 1.247-5.079-.1-3.767.1-.163-1.15 2.293-.326V20.203h-2.884v-.557l.982-1.146h1.902v-.327c0-1.965.622-3.242 1.801-4.587l2.75-3.111h4.129v2.622h-4.26l-.621.884c-.459.622-.689 1.572-.689 3.701V18.664z" class="colorBF5700 svgShape"></path><polygon fill="#ffffff" points="347.563 33.767 342.257 33.667 336.753 33.767 336.589 32.618 340.52 32.193 340.52 12.34 335.606 12.407 334.099 16.567 332.823 16.567 332.823 10.77 342.224 10.868 351.659 10.77 351.659 16.567 350.381 16.567 348.873 12.407 343.96 12.34 343.96 32.193 347.727 32.618" class="colorBF5700 svgShape"></polygon><path fill="#ffffff" d="M353.392,25.38c0,3.731,1.999,6.386,5.438,6.386c1.311,0,2.882-0.622,4.094-1.374l0.525,1.243
				c-1.572,1.081-3.636,2-5.732,2.587c-3.964,0-7.535-2.816-7.535-7.96c0-4.848,2.915-7.437,7.403-8.419
				c4.324,0,5.797,2.72,5.797,6.16v1.377H353.392z M359.977,23.743c0-2.523-0.491-4.261-3.015-4.261
				c-1.998,0-3.275,1.869-3.538,4.587L359.977,23.743z" class="colorBF5700 svgShape"></path><polygon fill="#ffffff" points="370.849 32.618 370.685 33.767 368.128 33.668 364.755 33.767 364.592 32.618 366.886 32.292 371.733 26.33 366.983 19.811 364.952 19.483 365.116 18.304 368.883 18.4 371.996 18.304 372.159 19.483 370.882 19.811 373.305 23.446 373.568 24.299 376.679 19.811 375.076 19.483 375.24 18.304 377.794 18.4 381.168 18.304 381.331 19.483 378.973 19.811 374.648 25.051 379.792 32.292 381.823 32.618 381.659 33.767 377.893 33.668 374.779 33.767 374.615 32.618 375.96 32.292 373.043 28.066 372.782 27.312 369.31 32.292" class="colorBF5700 svgShape"></polygon><path fill="#ffffff" d="M389.42 17.845c4.126 0 5.174 1.048 5.174 5.208v6.421c0 1.408.229 1.932.558 2.457h1.639l.13 1.147-4.226.819-1.016-2.523-3.899 2.851c-2.817 0-4.815-1.572-4.815-4.194 0-1.179.426-2.031 1.147-3.013l7.371-2.457v-1.639c0-1.966-.164-3.146-1.933-3.146-.883 0-1.964.296-2.687.593l-.558 2.587h-2.816v-2.491L389.42 17.845zM391.483 25.871l-4.75 1.965c-.492.491-.655 1.146-.655 1.834 0 1.672.949 2.26 1.899 2.26.917 0 1.705-.557 2.131-.85l1.375-.95V25.871zM407.074 20.17c-.33-.195-1.311-.719-2.49-.719-1.277 0-2.49.686-2.49 1.93 0 1.05.818 1.705 2.293 2.457l2.523 1.279c2.195 1.114 3.078 2.358 3.078 4.227 0 2.948-2.391 4.062-6.158 4.88-1.998 0-4.127-.983-4.979-1.474l-.622-3.702h2.096l1.113 2.719c.689.457 1.639.819 2.688.819 1.736 0 2.619-1.114 2.619-2.489 0-1.279-.688-1.836-2.393-2.72l-2.588-1.343c-1.407-.72-2.749-1.965-2.749-3.8 0-2.294 2.128-3.571 5.929-4.39 1.77 0 3.67.788 4.619 1.474v3.275h-1.736L407.074 20.17zM426.496 17.845c4.125 0 5.174 1.048 5.174 5.208v6.421c0 1.408.229 1.932.557 2.457h1.639l.131 1.147-4.227.819-1.014-2.523-3.902 2.851c-2.814 0-4.812-1.572-4.812-4.194 0-1.179.426-2.031 1.146-3.013l7.371-2.457v-1.639c0-1.966-.164-3.146-1.932-3.146-.887 0-1.967.296-2.688.593l-.559 2.587h-2.816v-2.491L426.496 17.845zM428.559 25.871l-4.75 1.965c-.492.491-.656 1.146-.656 1.834 0 1.672.951 2.26 1.9 2.26.916 0 1.705-.557 2.131-.85l1.375-.95V25.871zM433.83 20.204v-.558l1.148-1.145h2.127v-2.13l2.131-2.129h.852v4.489h4.945v1.474h-4.912v9.598c0 .95.359 1.967 1.734 1.967.951 0 1.672-.33 2.588-.788L445 32.095l-3.832 2.129c-3.67 0-4.16-1.311-4.16-4.258v-9.763H433.83zM458.854 26.069l-2.129 6.124 2.85.426-.164 1.147-3.93-.1-3.506.1-.164-1.147 2.557-.36 8.123-21.227 1.965-.558 8.549 21.785 2.557.36-.164 1.147-4.52-.1-4.326.1-.164-1.147 2.785-.426-2.227-6.124H458.854zM463.211 15.879l-.23-1.769-3.604 10.417h6.979L463.211 15.879zM489.479 29.474c0 1.408.164 1.933.393 2.457h1.639l.129 1.148-4.225.819-.916-2.655-4.752 2.98c-4.322 0-5.045-1.538-5.045-5.336v-8.552l-2.293.166-.162-1.28 3.93-.85 1.639-.131v10.908c0 1.703.721 2.459 2.324 2.459 1.018 0 2.328-.819 3.572-1.638l.656-.428v-9.206L484.4 20.5l-.164-1.28 3.604-.85 1.639-.131V29.474zM501.957 20.17c-.33-.195-1.312-.719-2.49-.719-1.279 0-2.49.686-2.49 1.93 0 1.05.818 1.705 2.291 2.457l2.525 1.279c2.193 1.114 3.078 2.358 3.078 4.227 0 2.948-2.391 4.062-6.158 4.88-1.998 0-4.129-.983-4.979-1.474l-.623-3.702h2.098l1.111 2.719c.689.457 1.639.819 2.686.819 1.738 0 2.621-1.114 2.621-2.489 0-1.279-.688-1.836-2.393-2.72l-2.588-1.343c-1.406-.72-2.75-1.965-2.75-3.8 0-2.294 2.131-3.571 5.93-4.39 1.77 0 3.67.788 4.619 1.474v3.275h-1.736L501.957 20.17zM505.916 20.204v-.558l1.148-1.145h2.131v-2.13l2.129-2.129h.85v4.489h4.947v1.474h-4.914v9.598c0 .95.361 1.967 1.736 1.967.949 0 1.672-.33 2.588-.788l.557 1.114-3.832 2.129c-3.67 0-4.162-1.311-4.162-4.258v-9.763H505.916zM522.916 33.668l-3.768.097-.162-1.147 2.293-.326V20.334l-2.293.197-.168-1.146 3.934-1.016 1.637-.131v14.054l2.457.326-.162 1.147L522.916 33.668zM521.279 11.129l2.357-.166.918.166.162 1.834-.361 1.572-2.324.197-.883-.197-.199-1.834L521.279 11.129zM532.25 33.667l-3.768.1-.164-1.15 2.293-.326V20.334l-2.293.198-.164-1.148 3.932-1.015 1.408-.098.162 2.75 4.85-3.177c4.193 0 4.883 1.409 4.883 5.34v9.107l2.49.326-.164 1.15-3.77-.1-3.145.1-.164-1.15 1.639-.326v-9.371c0-1.703-.752-2.457-2.162-2.457-1.146 0-2.291.722-3.408 1.474l-.98.655v9.698l1.801.326-.164 1.15L532.25 33.667z" class="colorBF5700 svgShape"></path></g></switch></svg></g></svg>