<?xml version="1.0" standalone="no"?>
<!DOCTYPE svg PUBLIC "-//W3C//DTD SVG 20010904//EN"
 "http://www.w3.org/TR/2001/REC-SVG-20010904/DTD/svg10.dtd">
<svg version="1.0" xmlns="http://www.w3.org/2000/svg"
 width="300.000000pt" height="300.000000pt" viewBox="0 0 300.000000 300.000000"
preserveAspectRatio="xMidYMid meet">
<metadata>
Created by potrace 1.10, written by Peter Selinger 2001-2011
</metadata>
<g transform="translate(0.000000,300.000000) scale(0.100000,-0.100000)"
fill="red" stroke="none">
<path d="M1838 2685 c-37 -8 -74 -18 -83 -22 -10 -6 -40 -4 -78 4 -126 26
-273 8 -371 -45 l-53 -28 -54 18 c-159 54 -385 74 -502 43 -272 -71 -384 -325
-317 -722 67 -395 202 -777 320 -907 62 -67 108 -86 169 -68 44 14 63 32 199
188 l96 111 29 -15 c16 -8 49 -17 73 -20 24 -2 44 -7 44 -9 0 -3 -14 -22 -31
-44 -23 -29 -43 -42 -87 -55 -31 -9 -75 -22 -96 -28 -53 -16 -84 -56 -68 -90
19 -42 86 -69 183 -74 104 -5 167 12 225 62 l39 33 -3 -165 c-4 -181 9 -328
34 -388 28 -66 73 -123 117 -147 58 -31 187 -30 268 2 149 58 188 123 224 376
27 193 33 245 34 296 l1 35 85 -4 c107 -6 193 11 270 51 85 45 135 96 135 136
0 44 -31 55 -118 40 -96 -16 -158 -18 -200 -7 -21 6 -38 11 -40 12 -1 2 21 41
49 87 111 183 207 412 262 619 27 103 30 132 31 270 1 184 -1 191 -105 291
-79 77 -176 131 -285 159 -92 24 -289 26 -396 5z m387 -22 c170 -42 344 -179
376 -296 7 -27 9 -87 6 -167 -11 -238 -119 -551 -292 -845 -65 -110 -64 -118
19 -135 48 -10 162 -2 219 16 32 10 67 -4 67 -28 0 -51 -140 -139 -254 -159
-66 -11 -176 -9 -207 5 -14 6 -18 -1 -23 -41 -34 -276 -59 -447 -73 -492 -34
-109 -117 -176 -250 -201 -181 -35 -289 60 -313 275 -5 50 -10 175 -10 279 l0
189 -48 -45 c-64 -60 -130 -82 -231 -76 -82 5 -145 28 -162 61 -17 31 16 54
116 81 80 22 93 28 127 67 20 24 38 54 38 67 0 19 -5 22 -35 22 -19 0 -58 9
-87 20 l-53 20 -37 -43 c-21 -23 -72 -83 -114 -134 -95 -114 -142 -143 -202
-125 -134 40 -280 367 -382 852 -56 263 -51 444 14 586 74 159 209 234 424
234 102 0 257 -27 347 -61 l55 -20 31 22 c77 54 250 81 374 57 63 -13 76 -12
130 5 123 38 303 42 430 10z"/>
<path d="M1851 2645 c-90 -20 -90 -20 -46 -34 158 -51 337 -225 427 -418 39
-83 44 -130 28 -270 -11 -92 -11 -140 -1 -246 13 -146 6 -209 -30 -288 -20
-44 -20 -47 -4 -73 10 -14 20 -26 24 -26 3 0 29 42 58 93 191 342 291 657 281
887 -3 65 -10 106 -22 129 -47 88 -171 183 -298 229 -63 22 -92 26 -213 29
-95 2 -160 -2 -204 -12z m399 -35 c36 -13 72 -28 80 -36 8 -7 18 -13 23 -13
37 -3 163 -116 195 -176 46 -89 2 -401 -90 -635 -31 -77 -141 -305 -180 -372
-22 -38 -47 -54 -33 -20 5 9 17 49 27 87 17 59 18 86 12 175 -10 127 -9 228 1
375 7 106 6 113 -20 180 -16 39 -51 104 -78 145 -53 80 -194 225 -243 250 -16
8 -42 22 -58 32 l-29 16 44 11 c75 17 274 7 349 -19z"/>
<path d="M1460 2629 c-231 -37 -387 -250 -416 -569 l-7 -74 32 23 c88 63 252
87 308 45 69 -52 98 -155 97 -349 0 -99 -3 -119 -33 -200 -69 -188 -91 -251
-91 -268 0 -16 2 -16 24 -2 22 14 28 14 60 1 19 -8 45 -30 56 -48 18 -30 20
-50 20 -258 0 -296 11 -396 50 -477 53 -106 130 -138 262 -109 128 29 198 90
227 202 15 54 71 501 71 560 0 69 23 112 70 132 22 9 40 21 40 25 0 5 -20 36
-43 70 -24 34 -81 136 -126 227 -120 244 -145 367 -91 455 32 52 80 70 187 70
106 0 102 -8 53 102 -72 160 -202 299 -346 371 -86 44 -142 60 -241 71 -95 10
-96 10 -163 0z m248 -36 c118 -29 226 -93 317 -187 103 -107 98 -101 150 -203
l45 -88 -82 -6 c-94 -7 -120 -16 -164 -56 -82 -74 -68 -233 41 -453 62 -127
127 -245 151 -277 31 -41 30 -54 -6 -75 -35 -20 -60 -71 -60 -120 0 -41 -55
-484 -69 -555 -15 -77 -60 -153 -91 -153 -5 0 -10 -3 -10 -8 0 -8 -88 -41
-129 -48 -14 -3 -36 -7 -48 -9 -67 -11 -147 43 -182 124 -26 62 -41 232 -41
485 0 183 -2 201 -21 236 -18 31 -66 72 -84 70 -44 -3 -46 19 -9 105 74 176
78 190 78 345 1 226 -30 317 -123 365 -55 28 -197 10 -283 -36 -18 -10 -19 -7
-14 53 10 125 66 271 134 355 46 58 126 113 192 134 72 23 219 24 308 2z"/>
<path d="M720 2616 c-207 -45 -320 -214 -320 -481 0 -207 130 -713 243 -945
46 -93 124 -184 169 -195 43 -11 90 21 169 115 39 47 91 107 116 133 l45 48
-37 37 c-20 20 -49 60 -63 87 l-27 50 0 245 c0 135 4 292 9 350 15 187 74 342
168 445 l47 52 -72 21 c-168 49 -333 63 -447 38z m260 -21 c82 -12 185 -38
192 -48 8 -13 -2 -33 -30 -63 -11 -12 -33 -46 -48 -75 -73 -145 -110 -335 -99
-514 4 -64 2 -160 -5 -228 -10 -99 -9 -126 4 -177 18 -69 44 -123 80 -164 32
-35 32 -39 4 -68 -13 -13 -45 -50 -73 -83 -103 -123 -138 -155 -172 -155 -72
0 -157 120 -235 335 -47 128 -68 202 -112 385 -80 333 -80 541 -1 683 51 91
159 163 255 171 28 2 54 6 57 9 6 7 118 2 183 -8z"/>
<path d="M2083 2061 c-42 -11 -79 -35 -99 -66 -22 -34 -19 -135 6 -215 20 -65
189 -410 200 -410 4 0 15 17 25 38 23 48 30 176 16 301 -8 75 -7 118 6 218 8
68 13 126 11 129 -10 9 -134 13 -165 5z m7 -26 c0 -2 -10 -9 -22 -15 -22 -11
-22 -10 -4 4 21 17 26 19 26 11z m124 -45 c0 -25 -3 -92 -5 -150 -2 -58 0
-158 4 -222 8 -112 -2 -198 -21 -198 -12 0 -157 295 -181 368 -24 70 -27 168
-7 195 16 20 28 23 20 4 -2 -7 5 -25 16 -40 30 -38 90 -38 120 0 27 35 22 54
-20 76 l-35 18 55 -3 55 -3 -1 -45z m-69 7 c17 -13 17 -15 -3 -35 -26 -26 -64
-28 -87 -6 -25 25 -2 45 61 53 5 0 18 -5 29 -12z"/>
<path d="M1236 2048 c-28 -4 -82 -23 -121 -42 l-72 -36 -6 -230 c-6 -214 -5
-235 13 -284 39 -102 132 -181 228 -193 l50 -5 17 53 c10 30 35 98 57 151 48
120 61 211 47 339 -22 216 -68 269 -213 247z m119 -38 c48 -29 44 -43 -5 -19
-47 23 -69 24 -98 3 -41 -29 -16 -89 42 -100 45 -8 70 1 86 31 7 13 16 22 20
20 14 -9 33 -203 28 -282 -4 -48 -16 -106 -33 -153 -15 -41 -39 -108 -54 -147
-14 -40 -33 -74 -41 -76 -50 -11 -141 42 -190 109 -49 69 -61 122 -54 232 3
52 8 142 9 200 2 59 3 112 4 117 1 6 15 19 33 30 95 56 197 70 253 35z m1 -45
c19 -15 19 -15 -5 -35 -30 -25 -52 -25 -79 0 -36 34 -27 50 28 50 20 0 45 -7
56 -15z"/>
<path d="M2203 1219 c-34 -14 -44 -25 -52 -56 -22 -79 -10 -94 87 -100 122 -9
244 29 331 103 37 31 42 59 9 50 -13 -3 -62 -11 -110 -18 -93 -12 -175 -2
-208 26 -13 11 -22 11 -57 -5z m68 -26 c26 -14 59 -18 147 -18 61 0 112 -3
112 -7 0 -13 -93 -55 -150 -68 -30 -6 -89 -10 -130 -8 -63 2 -75 6 -78 21 -8
42 14 76 64 97 0 0 16 -8 35 -17z"/>
<path d="M1362 1202 c-10 -10 -31 -35 -47 -56 -33 -43 -78 -68 -155 -86 -116
-26 -123 -57 -22 -86 71 -21 172 -15 227 14 46 23 125 104 125 127 0 9 -6 31
-14 50 -23 54 -79 72 -114 37z m75 -24 c35 -33 30 -71 -16 -117 -56 -56 -97
-73 -178 -73 -73 0 -103 5 -130 21 -14 8 -15 11 -3 12 8 1 18 1 23 0 4 0 7 3
7 8 0 5 21 12 48 16 65 10 79 18 148 91 33 35 64 64 69 64 5 0 19 -10 32 -22z"/>
</g>
</svg>
